<svg width="42" height="42" viewBox="0 0 42 42" fill="none" xmlns="http://www.w3.org/2000/svg">
<path d="M13.9809 7.88045L26.7699 21.0002L13.9809 34.1199C13.7519 34.3544 13.6237 34.669 13.6237 34.9967C13.6237 35.3244 13.7519 35.639 13.9809 35.8734C14.0921 35.9869 14.2248 36.0771 14.3713 36.1387C14.5178 36.2002 14.6751 36.2319 14.834 36.2319C14.9929 36.2319 15.1502 36.2002 15.2967 36.1387C15.4432 36.0771 15.5759 35.9869 15.6871 35.8734L29.2951 21.9163C29.534 21.6712 29.6677 21.3425 29.6677 21.0002C29.6677 20.6579 29.534 20.3292 29.2951 20.0841L15.6897 6.12695C15.5784 6.01264 15.4454 5.9218 15.2984 5.85976C15.1514 5.79773 14.9935 5.76577 14.834 5.76577C14.6745 5.76577 14.5165 5.79773 14.3696 5.85976C14.2226 5.92179 14.0895 6.01264 13.9782 6.12695C13.7493 6.36135 13.6211 6.67603 13.6211 7.0037C13.6211 7.33137 13.7493 7.64604 13.9782 7.88045L13.9809 7.88045Z" fill="#141313"/>
</svg>
