<svg width="42" height="42" viewBox="0 0 42 42" fill="none" xmlns="http://www.w3.org/2000/svg">
<path d="M28.0191 34.1196L15.2301 20.9998L28.0191 7.88005C28.2481 7.64565 28.3763 7.33097 28.3763 7.0033C28.3763 6.67563 28.2481 6.36096 28.0191 6.12655C27.9079 6.01305 27.7752 5.92289 27.6287 5.86133C27.4822 5.79977 27.3249 5.76807 27.166 5.76807C27.0071 5.76807 26.8498 5.79977 26.7033 5.86133C26.5568 5.92289 26.4241 6.01305 26.3129 6.12655L12.7049 20.0837C12.466 20.3288 12.3323 20.6575 12.3323 20.9998C12.3323 21.3421 12.466 21.6708 12.7049 21.9159L26.3103 35.8731C26.4216 35.9874 26.5546 36.0782 26.7016 36.1402C26.8486 36.2023 27.0065 36.2342 27.166 36.2342C27.3255 36.2342 27.4835 36.2023 27.6304 36.1402C27.7774 36.0782 27.9105 35.9874 28.0218 35.8731C28.2507 35.6386 28.3789 35.324 28.3789 34.9963C28.3789 34.6686 28.2507 34.354 28.0218 34.1196L28.0191 34.1196Z" fill="#141313"/>
</svg>
