<svg width="19" height="16" viewBox="0 0 19 16" fill="none" xmlns="http://www.w3.org/2000/svg">
<path d="M16.1111 1H2.88889C1.84568 1 1 1.89543 1 3V13C1 14.1046 1.84568 15 2.88889 15H16.1111C17.1543 15 18 14.1046 18 13V3C18 1.89543 17.1543 1 16.1111 1Z" fill="#141313"/>
<path d="M1 3L9.5 9L18 3" fill="#141313"/>
<path d="M18 3C18 1.89543 17.1543 1 16.1111 1H2.88889C1.84568 1 1 1.89543 1 3M18 3V13C18 14.1046 17.1543 15 16.1111 15H2.88889C1.84568 15 1 14.1046 1 13V3M18 3L9.5 9L1 3" stroke="white" stroke-linecap="round" stroke-linejoin="round"/>
</svg>
